<?xml version="1.0" encoding="UTF-8" standalone="no"?>
<!-- Created with Inkscape (http://www.inkscape.org/) -->

<svg
   width="500mm"
   height="114mm"
   viewBox="0 0 500 114"
   version="1.1"
   id="svg1"
   sodipodi:docname="noclasses.svg"
   inkscape:version="1.3.2 (091e20e, 2023-11-25, custom)"
   xmlns:inkscape="http://www.inkscape.org/namespaces/inkscape"
   xmlns:sodipodi="http://sodipodi.sourceforge.net/DTD/sodipodi-0.dtd"
   xmlns="http://www.w3.org/2000/svg"
   xmlns:svg="http://www.w3.org/2000/svg">
  <sodipodi:namedview
     id="namedview1"
     pagecolor="#353535"
     bordercolor="#000000"
     borderopacity="0.25"
     inkscape:showpageshadow="2"
     inkscape:pageopacity="0.0"
     inkscape:pagecheckerboard="0"
     inkscape:deskcolor="#d1d1d1"
     inkscape:document-units="mm"
     inkscape:zoom="0.43816166"
     inkscape:cx="814.76777"
     inkscape:cy="916.32845"
     inkscape:window-width="2560"
     inkscape:window-height="1406"
     inkscape:window-x="-11"
     inkscape:window-y="-11"
     inkscape:window-maximized="1"
     inkscape:current-layer="layer1" />
  <defs
     id="defs1" />
  <g
     inkscape:label="Layer 1"
     inkscape:groupmode="layer"
     id="layer1">
    <path
       d="m 285.42109,180.13259 h 6.74688 v 2.75332 q 2.30683,-1.93477 4.16719,-2.67891 1.88515,-0.76894 3.84472,-0.76894 4.01836,0 6.82129,2.80293 2.35645,2.38125 2.35645,7.04453 v 17.83457 h -6.69727 v -11.83184 q 0,-4.83691 -0.44648,-6.42441 -0.42168,-1.5875 -1.51309,-2.40606 -1.0666,-0.84336 -2.6541,-0.84336 -2.05879,0 -3.54707,1.38907 -1.46348,1.36425 -2.03399,3.79511 -0.29765,1.26504 -0.29765,5.48184 v 10.83965 h -6.74688 z m 43.16016,-0.69453 q 3.81992,0 7.16855,1.90996 3.37344,1.90996 5.2586,5.18418 1.88515,3.27422 1.88515,7.06933 0,3.81992 -1.90996,7.14375 -1.88515,3.32383 -5.15937,5.20899 -3.27422,1.86035 -7.21817,1.86035 -5.80429,0 -9.92187,-4.11758 -4.09277,-4.14238 -4.09277,-10.0459 0,-6.32519 4.63847,-10.54199 4.06797,-3.67109 9.35137,-3.67109 z m 0.0992,6.3748 q -3.1502,0 -5.2586,2.20762 -2.08359,2.18281 -2.08359,5.60586 0,3.52226 2.05879,5.70507 2.08359,2.18282 5.25859,2.18282 3.175,0 5.2834,-2.20762 2.1084,-2.20762 2.1084,-5.68027 0,-3.47266 -2.08359,-5.63067 -2.05879,-2.18281 -5.2834,-2.18281 z m 60.3746,-0.22324 -5.63066,3.10058 q -1.5875,-1.66191 -3.1502,-2.30683 -1.53789,-0.64492 -3.62148,-0.64492 -3.79512,0 -6.15156,2.28203 -2.33164,2.25722 -2.33164,5.80429 0,3.44786 2.25722,5.63067 2.25723,2.18281 5.92832,2.18281 4.53926,0 7.06934,-3.10059 l 5.33301,3.64629 q -4.34082,5.63067 -12.25352,5.63067 -7.11894,0 -11.16211,-4.2168 -4.01836,-4.2168 -4.01836,-9.87226 0,-3.91914 1.95957,-7.21817 1.95957,-3.29902 5.45703,-5.18418 3.52227,-1.88515 7.86309,-1.88515 4.01836,0 7.21816,1.6123 3.19981,1.5875 5.23379,4.53926 z m 5.38262,-15.875 h 6.77168 v 37.40547 h -6.77168 z m 32.84141,10.41797 h 6.74688 v 26.9875 h -6.74688 v -2.85254 q -1.98437,1.88515 -3.99355,2.72851 -1.98438,0.81856 -4.31602,0.81856 -5.23379,0 -9.05371,-4.04317 -3.81992,-4.06796 -3.81992,-10.0955 0,-6.25078 3.6959,-10.24434 3.6959,-3.99355 8.97929,-3.99355 2.43086,0 4.56407,0.91777 2.1332,0.91777 3.94394,2.75332 z m -7.11894,5.55625 q -3.1502,0 -5.23379,2.23242 -2.0836,2.20762 -2.0836,5.68027 0,3.49746 2.1084,5.75469 2.1332,2.25723 5.23379,2.25723 3.19981,0 5.3082,-2.20762 2.1084,-2.23242 2.1084,-5.8291 0,-3.52227 -2.1084,-5.70508 -2.10839,-2.18281 -5.333,-2.18281 z m 37.23183,-1.78594 -4.19199,4.19199 q -2.55489,-2.53008 -4.63848,-2.53008 -1.14102,0 -1.78594,0.4961 -0.64492,0.47129 -0.64492,1.19062 0,0.54571 0.39688,1.01699 0.42168,0.44649 2.03398,1.24024 l 2.48047,1.24023 q 3.91914,1.93477 5.38262,3.94395 1.46347,2.00918 1.46347,4.71289 0,3.59668 -2.6541,6.00273 -2.6293,2.40606 -7.06933,2.40606 -5.90352,0 -9.42579,-4.61367 l 4.16719,-4.53926 q 1.19063,1.38906 2.77813,2.25722 1.6123,0.84336 2.85254,0.84336 1.33945,0 2.158,-0.64492 0.81856,-0.64492 0.81856,-1.48828 0,-1.56269 -2.95176,-3.05098 l -2.28203,-1.14101 q -6.54844,-3.29902 -6.54844,-8.25996 0,-3.19981 2.45567,-5.45703 2.48046,-2.28203 6.32519,-2.28203 2.6293,0 4.93613,1.16582 2.33164,1.14101 3.94395,3.29902 z m 22.34903,0 -4.19199,4.19199 q -2.55489,-2.53008 -4.63848,-2.53008 -1.14102,0 -1.78594,0.4961 -0.64492,0.47129 -0.64492,1.19062 0,0.54571 0.39688,1.01699 0.42168,0.44649 2.03398,1.24024 l 2.48047,1.24023 q 3.91914,1.93477 5.38262,3.94395 1.46347,2.00918 1.46347,4.71289 0,3.59668 -2.6541,6.00273 -2.6293,2.40606 -7.06934,2.40606 -5.90351,0 -9.42578,-4.61367 l 4.16719,-4.53926 q 1.19063,1.38906 2.77813,2.25722 1.6123,0.84336 2.85254,0.84336 1.33945,0 2.158,-0.64492 0.81856,-0.64492 0.81856,-1.48828 0,-1.56269 -2.95176,-3.05098 l -2.28203,-1.14101 q -6.54844,-3.29902 -6.54844,-8.25996 0,-3.19981 2.45567,-5.45703 2.48046,-2.28203 6.32519,-2.28203 2.6293,0 4.93613,1.16582 2.33164,1.14101 3.94395,3.29902 z m 32.8662,11.68301 h -21.75371 q 0.47129,2.87734 2.50527,4.58886 2.05879,1.68672 5.23379,1.68672 3.79512,0 6.52363,-2.6541 l 5.70508,2.67891 q -2.1332,3.02617 -5.10976,4.48965 -2.97657,1.43867 -7.06934,1.43867 -6.35,0 -10.34355,-3.99356 -3.99356,-4.01836 -3.99356,-10.0459 0,-6.17636 3.96875,-10.24433 3.99356,-4.09277 9.99629,-4.09277 6.37481,0 10.36836,4.09277 3.99355,4.06797 3.99355,10.76523 z m -6.79648,-5.33301 q -0.66973,-2.25723 -2.65411,-3.67109 -1.95957,-1.41387 -4.56406,-1.41387 -2.82773,0 -4.96094,1.5875 -1.33945,0.99219 -2.48046,3.49746 z m 28.79824,-6.35 -4.19199,4.19199 q -2.55488,-2.53008 -4.63847,-2.53008 -1.14102,0 -1.78594,0.4961 -0.64492,0.47129 -0.64492,1.19062 0,0.54571 0.39687,1.01699 0.42168,0.44649 2.03399,1.24024 l 2.48046,1.24023 q 3.91914,1.93477 5.38262,3.94395 1.46348,2.00918 1.46348,4.71289 0,3.59668 -2.6541,6.00273 -2.6293,2.40606 -7.06934,2.40606 -5.90352,0 -9.42578,-4.61367 l 4.16719,-4.53926 q 1.19062,1.38906 2.77812,2.25722 1.61231,0.84336 2.85254,0.84336 1.33945,0 2.15801,-0.64492 0.81855,-0.64492 0.81855,-1.48828 0,-1.56269 -2.95175,-3.05098 l -2.28204,-1.14101 q -6.54843,-3.29902 -6.54843,-8.25996 0,-3.19981 2.45566,-5.45703 2.48047,-2.28203 6.3252,-2.28203 2.62929,0 4.93613,1.16582 2.33164,1.14101 3.94394,3.29902 z"
       id="text1"
       style="font-weight:bold;font-size:50.8px;font-family:'Century Gothic';-inkscape-font-specification:'Century Gothic, Bold';white-space:pre;inline-size:261.447;fill:#ffffff;stroke-width:0.264583"
       transform="matrix(1.7206888,0,0,1.7206888,-464.05366,-270.61582)"
       aria-label="no classes" />
  </g>
</svg>
