<?xml version="1.0" encoding="UTF-8" standalone="no"?>
<!-- Created with Inkscape (http://www.inkscape.org/) -->

<svg
   width="200mm"
   height="200mm"
   viewBox="0 0 200 200"
   version="1.1"
   id="svg1"
   inkscape:version="1.3.2 (091e20e, 2023-11-25, custom)"
   sodipodi:docname="favicon.svg"
   xmlns:inkscape="http://www.inkscape.org/namespaces/inkscape"
   xmlns:sodipodi="http://sodipodi.sourceforge.net/DTD/sodipodi-0.dtd"
   xmlns="http://www.w3.org/2000/svg"
   xmlns:svg="http://www.w3.org/2000/svg">
  <sodipodi:namedview
     id="namedview1"
     pagecolor="#ffffff"
     bordercolor="#000000"
     borderopacity="0.25"
     inkscape:showpageshadow="2"
     inkscape:pageopacity="0.0"
     inkscape:pagecheckerboard="0"
     inkscape:deskcolor="#d1d1d1"
     inkscape:document-units="mm"
     inkscape:zoom="1.0431888"
     inkscape:cx="396.86008"
     inkscape:cy="349.40942"
     inkscape:window-width="2560"
     inkscape:window-height="1406"
     inkscape:window-x="-11"
     inkscape:window-y="-11"
     inkscape:window-maximized="1"
     inkscape:current-layer="layer1" />
  <defs
     id="defs1" />
  <g
     inkscape:label="Layer 1"
     inkscape:groupmode="layer"
     id="layer1">
    <path
       d="m 7.867549,181.19737 -0.995387,-1.11722 q 0.331801,-6.87513 0.6636,-29.13332 l 0.580667,-48.4696 q 0,-66.001256 -1.244234,-85.853183 l 0.995387,-1.117212 q 8.709647,0.687523 14.847878,0.687523 9.456186,0 14.764924,-0.515608 l 1.990774,-0.08593 q 1.741927,0 2.073728,0.515607 0.414733,0.515607 0.414733,3.609438 0,1.9766 -0.580667,2.320354 -0.414733,0.343761 -5.225791,0.515607 -9.622085,0.429683 -11.198112,1.460966 -1.493082,1.031268 -2.073728,2.921931 -0.580668,1.890663 -0.995389,26.03954 -0.414733,24.148846 -0.414733,45.461807 0,21.91442 0.414733,45.71955 0.414735,23.80512 0.995389,25.60985 0.580666,1.89066 2.322573,3.00785 1.824875,1.20321 10.949267,1.37505 4.562197,0.0858 5.142837,0.42962 0.663602,0.4296 0.663602,2.40632 v 1.97657 q 0,2.06256 -1.990774,2.06256 l -2.488469,-0.0858 q -7.382466,-0.42962 -14.267229,-0.42962 -7.299519,0 -15.345571,0.68738 z M 108.89944,29.686787 q -0.91243,12.890866 -0.91243,27.156743 v 48.9853 q 0,27.32859 1.32718,30.1646 1.32719,2.75002 9.45619,2.75002 h 6.22117 v 5.41419 q -14.68196,-0.60147 -24.88471,-0.60147 -10.285657,0 -24.718806,0.60147 v -5.41419 h 6.967731 q 5.474632,0 7.133607,-1.4609 1.658995,-1.54696 2.073724,-5.92984 0.829497,-10.05485 0.829497,-25.95356 V 56.327899 q 0,-14.523704 -0.580663,-26.641112 h -8.460811 q -20.488398,0 -22.56212,1.031269 -2.073728,0.94533 -2.737322,7.64858 l -1.16128,11.515837 h -5.225791 l 0.165935,-10.226751 q 0,-6.187617 -0.995387,-17.78939 44.792471,0.601599 52.672616,0.601599 l 45.87082,-0.601599 q -1.57604,14.523704 -1.82489,28.016141 h -5.14284 l -0.8295,-11.258019 q -0.49767,-5.843862 -1.41012,-6.87513 -0.91244,-1.117206 -4.06451,-1.375022 -9.1244,-0.687523 -20.73724,-0.687523 z m 83.36377,-14.179952 0.99537,1.117212 q -0.41473,9.625174 -0.58066,15.297157 -0.74654,40.649176 -0.74654,62.305824 l 0.91243,72.618522 q 0.083,6.35947 0.41475,13.2346 l -0.99539,1.11722 q -8.04606,-0.68738 -14.35019,-0.68738 -10.53452,0 -15.26261,0.4296 l -1.99079,0.0858 q -1.74193,0 -2.15666,-0.51553 -0.33181,-0.42962 -0.33181,-3.52346 0,-1.89067 0.41475,-2.23441 0.49767,-0.34369 7.71425,-0.6874 7.54836,-0.4296 8.9585,-1.46096 1.49308,-1.03128 1.99077,-3.09385 0.58066,-2.06248 0.99539,-25.95354 0.41473,-23.97705 0.41473,-45.719605 0,-22.601998 -0.41473,-45.805542 -0.41473,-23.289491 -0.99539,-25.09421 -0.58067,-1.890662 -2.32256,-3.007869 -1.74193,-1.203148 -10.94929,-1.375027 -4.72809,-0.08593 -5.30873,-0.515607 -0.49767,-0.515606 -0.49767,-4.296953 0,-2.148473 1.99079,-2.148473 l 2.48847,0.08591 q 8.2949,0.515607 14.18428,0.515607 7.05066,0 15.42852,-0.68752 z"
       id="text1"
       style="font-size:25.4px;font-family:'Book Antiqua';-inkscape-font-specification:'Book Antiqua, Normal';stroke-width:1.80119;fill:#ffffff"
       aria-label="[T]" />
  </g>
</svg>
