<?xml version="1.0" encoding="UTF-8" standalone="no"?>
<!-- Created with Inkscape (http://www.inkscape.org/) -->

<svg
   width="500mm"
   height="500mm"
   viewBox="0 0 500 500"
   version="1.1"
   id="svg1"
   sodipodi:docname="phi.svg"
   inkscape:version="1.3.2 (091e20e, 2023-11-25, custom)"
   xmlns:inkscape="http://www.inkscape.org/namespaces/inkscape"
   xmlns:sodipodi="http://sodipodi.sourceforge.net/DTD/sodipodi-0.dtd"
   xmlns="http://www.w3.org/2000/svg"
   xmlns:svg="http://www.w3.org/2000/svg">
  <sodipodi:namedview
     id="namedview1"
     pagecolor="#545454"
     bordercolor="#000000"
     borderopacity="0.25"
     inkscape:showpageshadow="2"
     inkscape:pageopacity="0.0"
     inkscape:pagecheckerboard="false"
     inkscape:deskcolor="#d1d1d1"
     inkscape:document-units="mm"
     inkscape:zoom="0.61965417"
     inkscape:cx="974.73725"
     inkscape:cy="959.40612"
     inkscape:window-width="2560"
     inkscape:window-height="1406"
     inkscape:window-x="-11"
     inkscape:window-y="-11"
     inkscape:window-maximized="1"
     inkscape:current-layer="svg1"
     showgrid="true">
    <inkscape:grid
       id="grid1"
       units="mm"
       originx="0"
       originy="0"
       spacingx="0.99999999"
       spacingy="0.99999999"
       empcolor="#0099e5"
       empopacity="0.30196078"
       color="#0099e5"
       opacity="0.14901961"
       empspacing="50"
       dotted="false"
       gridanglex="30"
       gridanglez="30"
       visible="true" />
  </sodipodi:namedview>
  <defs
     id="defs1">
    <linearGradient
       id="linearGradient498"
       inkscape:swatch="gradient">
      <stop
         style="stop-color:#ffffff;stop-opacity:1;"
         offset="0"
         id="stop499" />
      <stop
         style="stop-color:#ffffff;stop-opacity:0;"
         offset="1"
         id="stop500" />
    </linearGradient>
  </defs>
  <path
     d="m 6.9596437,242.32903 v -38.01345 q 14.0966203,-0.63354 20.7489853,-5.5436 6.810752,-4.91008 10.295301,-15.36378 3.642972,-10.45368 3.642972,-35.32083 0,-31.3611 2.851009,-42.7651 2.851008,-11.56246 9.028181,-18.373174 6.33556,-6.969135 18.373169,-11.404031 12.195955,-4.434897 35.004029,-4.434897 h 8.39464 v 38.013422 q -16.947674,0 -22.174499,1.9007 -5.22686,1.74228 -7.761097,5.8604 -2.375852,4.11809 -2.375852,15.20535 0,19.95707 -1.90066,44.50741 -1.267118,15.99732 -8.711405,28.66848 -5.54363,9.34498 -19.165095,18.21478 11.562419,6.65233 18.373168,16.94766 6.81071,10.13693 9.028176,25.81744 0.950312,6.81074 2.217431,44.349 0.475192,13.7799 1.74231,17.10606 2.059046,4.91009 7.602676,7.4443 5.702028,2.53423 23.124847,2.53423 v 37.85503 h -8.39464 q -22.96646,0 -34.053716,-3.80132 -11.087226,-3.64297 -18.056363,-10.92887 -6.969136,-7.12752 -10.136916,-18.21475 -3.009393,-10.92887 -3.009393,-37.85508 0,-30.09397 -3.326202,-40.54765 -3.167779,-10.61207 -10.136915,-15.83894 -6.810714,-5.22686 -21.2241413,-6.01879 z M 495.59069,204.31558 v 38.01345 q -14.09662,0.79193 -20.90737,5.70202 -6.65236,4.75167 -10.2953,15.36375 -3.64298,10.45372 -3.64298,35.32083 0,31.3611 -2.85101,42.76513 -2.69262,11.40403 -9.02818,18.21474 -6.17717,6.96914 -18.37316,11.40404 -12.03758,4.43489 -34.84565,4.43489 H 387.2524 V 337.6794 q 16.94767,0 22.01611,-1.90066 5.22686,-1.74227 7.7611,-5.8604 2.5342,-4.11813 2.5342,-15.2054 0,-20.11544 1.9007,-44.66578 1.10873,-15.99731 8.55302,-28.51009 5.70202,-9.50334 19.32348,-18.21475 -11.56242,-6.65236 -18.37317,-16.78927 -6.81071,-10.2953 -9.02818,-26.13424 -0.95034,-6.65237 -2.21743,-44.19064 -0.47519,-13.93827 -1.90069,-17.10605 -2.05905,-5.06844 -7.76107,-7.44429 -5.54363,-2.53424 -22.80807,-2.53424 V 71.110168 h 8.39464 q 22.96646,0 33.8953,3.801319 11.08726,3.801356 18.0564,11.087261 7.12752,7.12752 10.13691,18.214792 3.16778,10.92884 3.16778,37.85503 0,30.09398 3.16778,40.54767 3.32621,10.45373 10.13696,15.68055 6.81071,5.22686 21.38252,6.01879 z"
     id="text1"
     style="font-weight:bold;font-size:87.4109px;font-family:'Century Gothic';-inkscape-font-specification:'Century Gothic, Bold';fill:#ffffff;stroke-width:0.981866"
     aria-label="{   }" />
  <rect
     style="fill:#ffffff;stroke-width:0.176574"
     id="rect1"
     width="22.63023"
     height="375.74722"
     x="237.83092"
     y="37.147736" />
  <rect
     style="fill:none;stroke:#ffffff;stroke-width:17.065;stroke-dasharray:none;stroke-opacity:1"
     id="rect2-4"
     width="97.779671"
     height="4.6968403"
     x="201.41376"
     y="414.40256" />
  <circle
     style="fill:none;stroke-width:17.065;stroke-dasharray:none;stroke:#ffffff;stroke-opacity:1"
     id="path1"
     cx="251.06746"
     cy="220.32451"
     r="137.91631" />
  <rect
     style="fill:none;stroke:#ffffff;stroke-width:17.065;stroke-dasharray:none;stroke-opacity:1"
     id="rect2"
     width="97.779671"
     height="4.6968403"
     x="200.25618"
     y="31.169939" />
</svg>
