<?xml version="1.0" encoding="UTF-8" standalone="no"?>
<!-- Created with Inkscape (http://www.inkscape.org/) -->

<svg
   width="210mm"
   height="54mm"
   viewBox="0 0 210 54"
   version="1.1"
   id="svg1"
   sodipodi:docname="TimeTrack.svg"
   inkscape:version="1.3.2 (091e20e, 2023-11-25, custom)"
   xmlns:inkscape="http://www.inkscape.org/namespaces/inkscape"
   xmlns:sodipodi="http://sodipodi.sourceforge.net/DTD/sodipodi-0.dtd"
   xmlns="http://www.w3.org/2000/svg"
   xmlns:svg="http://www.w3.org/2000/svg">
  <sodipodi:namedview
     id="namedview1"
     pagecolor="#adadad"
     bordercolor="#000000"
     borderopacity="0.25"
     inkscape:showpageshadow="2"
     inkscape:pageopacity="0.0"
     inkscape:pagecheckerboard="true"
     inkscape:deskcolor="#d1d1d1"
     inkscape:document-units="mm"
     inkscape:zoom="1.0431888"
     inkscape:cx="268.88709"
     inkscape:cy="316.81705"
     inkscape:window-width="2560"
     inkscape:window-height="1406"
     inkscape:window-x="-11"
     inkscape:window-y="-11"
     inkscape:window-maximized="1"
     inkscape:current-layer="layer1"
     showgrid="true">
    <inkscape:grid
       id="grid10"
       units="mm"
       originx="0"
       originy="0"
       spacingx="0.99999998"
       spacingy="1"
       empcolor="#0099e5"
       empopacity="0.30196078"
       color="#0099e5"
       opacity="0.14901961"
       empspacing="5"
       dotted="false"
       gridanglex="30"
       gridanglez="30"
       visible="true"
       enabled="true"
       snapvisiblegridlinesonly="true" />
  </sodipodi:namedview>
  <defs
     id="defs1">
    <rect
       x="-25.882179"
       y="91.066925"
       width="578.03534"
       height="216.64342"
       id="rect7" />
    <rect
       x="245.4014"
       y="243.48421"
       width="402.61166"
       height="164.87907"
       id="rect6" />
    <rect
       x="373.8537"
       y="367.14349"
       width="5.7515955"
       height="30.675175"
       id="rect5" />
  </defs>
  <g
     inkscape:label="Layer 1"
     inkscape:groupmode="layer"
     id="layer1">
    <path
       style="font-size:39.2957px;font-family:'Century Gothic';-inkscape-font-specification:'Century Gothic, Normal';fill:#ffffff;stroke-width:0.40933"
       d="M 11.949,15.124541 V 12.38075 h 15.484194 v 2.743791 H 21.139742 V 40.605347 H 18.261639 V 15.124541 Z m 20.031597,-3.990969 q 0.920993,0 1.573363,0.65237 0.65237,0.65237 0.65237,1.573363 0,0.901805 -0.65237,1.554175 -0.65237,0.65237 -1.573363,0.65237 -0.901805,0 -1.554175,-0.65237 -0.65237,-0.65237 -0.65237,-1.554175 0,-0.920993 0.65237,-1.573363 0.65237,-0.65237 1.554175,-0.65237 z m -1.343115,8.595934 h 2.705417 v 20.875841 h -2.705417 z m 8.250563,0 h 2.667042 v 3.607222 q 1.400677,-1.995484 2.878103,-2.916477 2.03386,-1.227991 4.27878,-1.227991 1.515801,0 2.878103,0.594808 1.362302,0.594808 2.225733,1.59255 0.863431,0.978555 1.496614,2.820541 1.343114,-2.455981 3.357787,-3.722346 2.014672,-1.285553 4.336341,-1.285553 2.168171,0 3.818284,1.093679 1.6693,1.093679 2.475168,3.050789 0.805869,1.957111 0.805869,5.871331 V 40.605347 H 67.362078 V 29.208059 q 0,-3.357787 -0.479684,-4.604965 -0.479684,-1.266366 -1.650112,-2.03386 -1.151242,-0.767494 -2.762979,-0.767494 -1.95711,0 -3.588036,1.151241 -1.611737,1.151242 -2.360044,3.069977 -0.748307,1.918735 -0.748307,6.408576 v 8.173813 H 53.105874 V 29.917991 q 0,-3.779909 -0.479684,-5.123024 -0.460496,-1.362302 -1.630925,-2.168171 -1.170428,-0.825056 -2.782166,-0.825056 -1.861173,0 -3.492098,1.132054 -1.611738,1.112867 -2.39842,3.012415 -0.767494,1.899548 -0.767494,5.813768 v 8.84537 h -2.667042 z m 54.453707,13.949206 2.264108,1.189616 q -1.112867,2.187358 -2.571105,3.530473 -1.458239,1.343115 -3.281038,2.053047 -1.822799,0.690745 -4.125281,0.690745 -5.103836,0 -7.981939,-3.3386 -2.878103,-3.357787 -2.878103,-7.579005 0,-3.971782 2.436794,-7.080133 3.089164,-3.952595 8.269749,-3.952595 5.334085,0 8.519185,4.048532 2.264108,2.858915 2.302483,7.137695 H 77.531373 q 0.07675,3.645597 2.32167,5.986455 2.24492,2.321669 5.545145,2.321669 1.59255,0 3.089164,-0.556433 1.515801,-0.556433 2.571105,-1.477426 1.055305,-0.920993 2.283295,-2.97404 z m 0,-5.621895 q -0.537246,-2.148983 -1.573363,-3.434536 -1.01693,-1.285553 -2.705417,-2.072234 -1.688487,-0.786682 -3.54966,-0.786682 -3.069977,0 -5.276522,1.976298 -1.611738,1.439051 -2.436794,4.317154 z M 98.94446,15.124541 V 12.38075 h 15.48419 v 2.743791 h -6.29345 v 25.480806 h -2.8781 V 15.124541 Z m 18.07449,4.604965 h 2.74379 v 3.050789 q 1.22799,-1.803611 2.5903,-2.686229 1.3623,-0.901806 2.83972,-0.901806 1.11287,0 2.37924,0.709932 l -1.40068,2.264108 q -0.84424,-0.36456 -1.41987,-0.36456 -1.34311,0 -2.59029,1.112867 -1.24718,1.093679 -1.89955,3.415349 -0.49887,1.784424 -0.49887,7.214445 v 7.060946 h -2.74379 z m 33.63543,0 v 20.875841 h -2.64786 v -3.588035 q -1.68848,2.053046 -3.79909,3.089163 -2.09143,1.036118 -4.58578,1.036118 -4.43228,0 -7.57901,-3.204288 -3.12753,-3.223476 -3.12753,-7.828441 0,-4.509028 3.16591,-7.713316 3.16591,-3.204288 7.61738,-3.204288 2.5711,0 4.64334,1.093679 2.09142,1.093679 3.66478,3.281038 v -3.837471 z m -10.74492,2.053047 q -2.24492,0 -4.14447,1.112866 -1.89955,1.09368 -3.0316,3.089164 -1.11287,1.995485 -1.11287,4.221218 0,2.206546 1.13206,4.221218 1.13205,2.014672 3.0316,3.146726 1.91873,1.112866 4.10609,1.112866 2.20655,0 4.18284,-1.112866 1.9763,-1.112867 3.03161,-3.012415 1.07449,-1.899548 1.07449,-4.27878 0,-3.626409 -2.39842,-6.063203 -2.37923,-2.436794 -5.87133,-2.436794 z m 37.05079,2.283295 -2.1298,1.323927 q -2.76298,-3.664784 -7.54063,-3.664784 -3.81828,0 -6.35101,2.455981 -2.51355,2.455981 -2.51355,5.967267 0,2.283295 1.15125,4.297967 1.17042,2.014672 3.1851,3.127539 2.03386,1.112866 4.5474,1.112866 4.60496,0 7.52144,-3.664784 l 2.1298,1.400677 q -1.49662,2.24492 -4.02935,3.492098 -2.51354,1.227991 -5.73702,1.227991 -4.95033,0 -8.21218,-3.146726 -3.26185,-3.146726 -3.26185,-7.655754 0,-3.031602 1.5158,-5.621895 1.53499,-2.60948 4.20203,-4.067719 2.66704,-1.458239 5.96727,-1.458239 2.07223,0 3.99097,0.633183 1.93792,0.633182 3.28103,1.650112 1.34312,1.01693 2.2833,2.590293 z"
       id="text9"
       aria-label="TimeTrac" />
    <rect
       style="fill:#ff2323;fill-opacity:1;stroke-width:0.384322"
       id="rect9"
       width="1.5695378"
       height="39.238445"
       x="180.92401"
       y="6.5659976" />
    <rect
       style="fill:#ffffff;fill-opacity:1;stroke-width:0.40933"
       id="rect10"
       width="14.714417"
       height="2.6485951"
       x="136.97978"
       y="-120.372"
       transform="rotate(49.309521)" />
    <rect
       style="fill:#ffffff;fill-opacity:1;stroke-width:0.40933"
       id="rect11"
       width="23.518541"
       height="1.814778"
       x="144.90225"
       y="103.43302"
       transform="rotate(-25.577512)" />
    <path
       style="fill:#ffffff;fill-opacity:1;stroke-width:0.40933"
       d="m 31.781117,9.25138 -2.525973,4.303969"
       id="path12" />
    <rect
       style="fill:#ffffff;fill-opacity:1;stroke-width:0.40933"
       id="rect12"
       width="5.1745696"
       height="5.002902"
       x="32.204346"
       y="-2.6064525"
       transform="rotate(23.015748)" />
  </g>
</svg>
