<?xml version="1.0" encoding="UTF-8" standalone="no"?>
<!-- Created with Inkscape (http://www.inkscape.org/) -->

<svg
   width="500mm"
   height="100mm"
   viewBox="0 0 500 100"
   version="1.1"
   id="svg1"
   inkscape:version="1.3.2 (091e20e, 2023-11-25, custom)"
   sodipodi:docname="timetensors.svg"
   xmlns:inkscape="http://www.inkscape.org/namespaces/inkscape"
   xmlns:sodipodi="http://sodipodi.sourceforge.net/DTD/sodipodi-0.dtd"
   xmlns="http://www.w3.org/2000/svg"
   xmlns:svg="http://www.w3.org/2000/svg">
  <sodipodi:namedview
     id="namedview1"
     pagecolor="#353535"
     bordercolor="#000000"
     borderopacity="0.25"
     inkscape:showpageshadow="2"
     inkscape:pageopacity="0.0"
     inkscape:pagecheckerboard="0"
     inkscape:deskcolor="#d1d1d1"
     inkscape:document-units="mm"
     inkscape:zoom="0.52159442"
     inkscape:cx="1077.4655"
     inkscape:cy="840.69151"
     inkscape:window-width="2560"
     inkscape:window-height="1406"
     inkscape:window-x="-11"
     inkscape:window-y="-11"
     inkscape:window-maximized="1"
     inkscape:current-layer="layer1" />
  <defs
     id="defs1">
    <inkscape:path-effect
       effect="mirror_symmetry"
       start_point="250,120.22032"
       end_point="250,178.55508"
       center_point="250,149.3877"
       id="path-effect1"
       is_visible="true"
       lpeversion="1.2"
       lpesatellites=""
       mode="free"
       discard_orig_path="false"
       fuse_paths="false"
       oposite_fuse="false"
       split_items="false"
       split_open="false"
       link_styles="false" />
  </defs>
  <g
     inkscape:label="Layer 1"
     inkscape:groupmode="layer"
     id="layer1">
    <path
       d="m 17.950889,17.609239 h 11.60926 v 17.115122 h 6.91434 V 44.75442 h -6.91434 V 81.1614 H 17.950889 V 44.75442 h -5.97535 V 34.724361 h 5.97535 z m 29.3646,-2.006011 c 2.048693,0 3.79862,0.739806 5.24978,2.219417 1.479607,1.479611 2.21941,3.272218 2.21941,5.377819 0,2.077147 -0.725577,3.855526 -2.17673,5.335137 -1.45116,1.451158 -3.18686,2.176737 -5.2071,2.176737 -2.077147,0 -3.855523,-0.739806 -5.33513,-2.219418 -1.45116,-1.508065 -2.17674,-3.329126 -2.17674,-5.463181 0,-2.048693 0.72558,-3.798618 2.17674,-5.249775 1.451153,-1.451157 3.201077,-2.176736 5.24977,-2.176736 z m -5.84731,19.121133 h 11.69462 V 81.1614 h -11.69462 z m 22.15149,0 h 11.69462 v 5.335138 c 1.991787,-2.190963 4.19698,-3.827072 6.61558,-4.908327 2.447047,-1.081255 5.1075,-1.621882 7.98136,-1.621882 2.902313,0 5.520087,0.711352 7.85332,2.134055 2.333231,1.422704 4.211201,3.499851 5.633911,6.231441 1.84951,-2.73159 4.11161,-4.808737 6.78629,-6.231441 2.70314,-1.422703 5.64814,-2.134055 8.83499,-2.134055 3.30067,0 6.20299,0.76826 8.70695,2.30478 2.50395,1.536519 4.29656,3.542531 5.37781,6.018035 1.10971,2.475504 1.66457,6.501755 1.66457,12.078752 V 81.1614 H 123.03176 V 57.601432 c 0,-5.264003 -0.65444,-8.820761 -1.96333,-10.670276 -1.30889,-1.877968 -3.27222,-2.816952 -5.88999,-2.816952 -1.99178,0 -3.78439,0.569081 -5.37782,1.707244 -1.56497,1.138163 -2.73159,2.717363 -3.49985,4.737602 -0.76826,1.991785 -1.15239,5.207094 -1.15239,9.645929 V 81.1614 H 93.411079 V 58.668459 c 0,-4.154294 -0.312993,-7.156198 -0.93898,-9.005712 -0.59754,-1.877969 -1.50807,-3.272218 -2.73159,-4.182748 -1.223527,-0.91053 -2.70314,-1.365795 -4.43884,-1.365795 -1.934873,0 -3.699023,0.583308 -5.29245,1.749925 -1.564973,1.138163 -2.74582,2.745817 -3.54254,4.822964 -0.76826,2.077147 -1.15239,5.349365 -1.15239,9.816654 V 81.1614 H 63.619669 Z M 192.38855,61.314688 h -37.43133 c 0.54063,3.300671 1.97756,5.932672 4.31079,7.896003 2.36169,1.934877 5.36359,2.902315 9.00572,2.902315 4.35347,0 8.09518,-1.522293 11.22513,-4.566878 l 9.81665,4.609559 c -2.44705,3.471397 -5.37782,6.04649 -8.79231,7.72528 -3.41449,1.650336 -7.46919,2.475504 -12.16411,2.475504 -7.28424,0 -13.21691,-2.290553 -17.79802,-6.871658 -4.58111,-4.609559 -6.87166,-10.371507 -6.87166,-17.285846 0,-7.085063 2.27633,-12.960828 6.82898,-17.627295 4.5811,-4.694921 10.31459,-7.042382 17.20048,-7.042382 7.31269,0 13.25959,2.347461 17.8407,7.042382 4.58111,4.666467 6.87166,10.841 6.87166,18.523598 z m -11.69462,-9.176437 c -0.76826,-2.589321 -2.29055,-4.694922 -4.56688,-6.316803 -2.24787,-1.621882 -4.86565,-2.432823 -7.85332,-2.432823 -3.24377,0 -6.08917,0.91053 -8.53622,2.73159 -1.53652,1.138163 -2.95922,3.144175 -4.26811,6.018036 z m 13.91222,-35.543529 h 29.36332 l -9.13066,18.129639 h 6.91434 V 44.75442 h -6.91434 V 81.1614 H 203.22955 V 44.75442 h -5.97536 V 34.724361 h 5.97536 z m 79.94353,44.719966 h -37.43133 c 0.54063,3.300671 1.97757,5.932672 4.3108,7.896003 2.36169,1.934877 5.36359,2.902315 9.00571,2.902315 4.35347,0 8.09518,-1.522293 11.22513,-4.566878 l 9.81665,4.609559 c -2.44705,3.471397 -5.37782,6.04649 -8.79231,7.72528 -3.41449,1.650336 -7.46919,2.475504 -12.16411,2.475504 -7.28424,0 -13.21691,-2.290553 -17.79802,-6.871658 -4.58111,-4.609559 -6.87166,-10.371507 -6.87166,-17.285846 0,-7.085063 2.27633,-12.960828 6.82898,-17.627295 4.58111,-4.694921 10.3146,-7.042382 17.20048,-7.042382 7.3127,0 13.2596,2.347461 17.8407,7.042382 4.58111,4.666467 6.87166,10.841 6.87166,18.523598 z m -11.69462,-9.176437 c -0.76826,-2.589321 -2.29055,-4.694922 -4.56688,-6.316803 -2.24787,-1.621882 -4.86565,-2.432823 -7.85332,-2.432823 -3.24377,0 -6.08917,0.91053 -8.53622,2.73159 -1.53652,1.138163 -2.95922,3.144175 -4.26811,6.018036 z m 21.12715,-17.41389 h 11.60926 v 4.737602 c 2.64623,-2.219417 5.03637,-3.755936 7.17042,-4.609559 2.16251,-0.882076 4.3677,-1.323114 6.61557,-1.323114 4.60956,0 8.52199,1.607655 11.7373,4.822965 2.70314,2.731591 4.05471,6.772068 4.05471,12.121433 V 81.1614 h -11.5239 V 60.802514 c 0,-5.548543 -0.25609,-9.233345 -0.76826,-11.054405 -0.48372,-1.821061 -1.35157,-3.201083 -2.60355,-4.140067 -1.22352,-0.967438 -2.74581,-1.451157 -4.56687,-1.451157 -2.36169,0 -4.39616,0.796714 -6.1034,2.390141 -1.67879,1.564974 -2.84541,3.74171 -3.49985,6.530209 -0.34145,1.451157 -0.51217,4.595332 -0.51217,9.432523 V 81.1614 h -11.60926 z m 80.88069,6.487528 -7.21311,7.213106 c -2.93077,-2.902315 -5.59122,-4.353473 -7.98136,-4.353473 -1.30889,0 -2.33324,0.284541 -3.07304,0.853622 -0.73981,0.540627 -1.10971,1.223525 -1.10971,2.048693 0,0.62599 0.22763,1.209299 0.68289,1.749926 0.48372,0.512173 1.65034,1.223524 3.49986,2.134055 l 4.26811,2.134055 c 4.49574,2.219417 7.583,4.481516 9.26179,6.786295 1.67879,2.304779 2.51819,5.007916 2.51819,8.109409 0,4.12584 -1.52229,7.568782 -4.56688,10.328827 -3.01613,2.760045 -7.07084,4.140067 -12.16411,4.140067 -6.77207,0 -12.17834,-2.646228 -16.21882,-7.938685 l 7.17042,-7.810642 c 1.3658,1.593428 2.95923,2.888088 4.78029,3.88398 1.84951,0.967439 3.48562,1.451158 4.90832,1.451158 1.53652,0 2.77427,-0.369903 3.71326,-1.109709 0.93899,-0.739805 1.40848,-1.593427 1.40848,-2.560866 0,-1.792606 -1.69302,-3.542531 -5.07905,-5.249775 l -3.92667,-1.963331 c -7.51187,-3.784391 -11.26781,-8.521994 -11.26781,-14.212807 0,-3.670575 1.40848,-6.800522 4.22543,-9.389842 2.84541,-2.617775 6.4733,-3.926662 10.88368,-3.926662 3.01613,0 5.84731,0.668671 8.49354,2.006012 2.67469,1.308887 4.93679,3.201083 6.7863,5.676587 z m 31.84008,-7.682599 c 4.38193,0 8.49354,1.095482 12.33484,3.286445 3.86975,2.190963 6.88589,5.164413 9.0484,8.92035 2.16251,3.755937 3.24376,7.810642 3.24376,12.164114 0,4.381927 -1.09548,8.479313 -3.28644,12.292158 -2.16251,3.812845 -5.12174,6.800522 -8.87767,8.963031 -3.75594,2.134055 -7.89601,3.201083 -12.4202,3.201083 -6.65825,0 -12.34907,-2.361688 -17.07244,-7.085063 -4.69493,-4.751829 -7.04239,-10.513778 -7.04239,-17.285846 0,-7.255787 2.66046,-13.302277 7.98137,-18.139469 4.66647,-4.211202 10.03006,-6.316803 16.09077,-6.316803 z m 0.17073,10.969043 c -3.61367,0 -6.6298,1.266206 -9.04839,3.798619 -2.39015,2.503957 -3.58522,5.719267 -3.58522,9.645929 0,4.040477 1.18084,7.312695 3.54253,9.816653 2.39015,2.503958 5.40628,3.755937 9.0484,3.755937 3.64212,0 6.67248,-1.266206 9.09107,-3.798618 2.4186,-2.532412 3.6279,-5.790403 3.6279,-9.773972 0,-3.98357 -1.19507,-7.213107 -3.58522,-9.688611 -2.36169,-2.503958 -5.39204,-3.755937 -9.09107,-3.755937 z m 31.24257,-9.773972 h 9.98737 v 5.847311 c 1.08126,-2.304779 2.51819,-4.054704 4.3108,-5.249775 1.79261,-1.195071 3.75594,-1.792607 5.88999,-1.792607 1.50807,0 3.08727,0.398357 4.7376,1.195071 l -3.62789,10.030059 c -1.3658,-0.682897 -2.48974,-1.024346 -3.37181,-1.024346 -1.79261,0 -3.3149,1.109709 -4.56688,3.329126 -1.22353,2.219417 -1.83529,6.57289 -1.83529,13.060417 l 0.0427,2.262098 V 81.1614 h -11.56658 z m 59.11332,6.487528 -7.21311,7.213106 c -2.93077,-2.902315 -5.59122,-4.353473 -7.98137,-4.353473 -1.30889,0 -2.33323,0.284541 -3.07303,0.853622 -0.73981,0.540627 -1.10971,1.223525 -1.10971,2.048693 0,0.62599 0.22763,1.209299 0.68289,1.749926 0.48372,0.512173 1.65034,1.223524 3.49985,2.134055 l 4.26811,2.134055 c 4.49575,2.219417 7.58301,4.481516 9.2618,6.786295 1.67879,2.304779 2.51819,5.007916 2.51819,8.109409 0,4.12584 -1.52229,7.568782 -4.56688,10.328827 -3.01613,2.760045 -7.07084,4.140067 -12.16411,4.140067 -6.77207,0 -12.17835,-2.646228 -16.21882,-7.938685 l 7.17042,-7.810642 c 1.3658,1.593428 2.95923,2.888088 4.78029,3.88398 1.84951,0.967439 3.48562,1.451158 4.90832,1.451158 1.53652,0 2.77427,-0.369903 3.71326,-1.109709 0.93899,-0.739805 1.40848,-1.593427 1.40848,-2.560866 0,-1.792606 -1.69302,-3.542531 -5.07906,-5.249775 l -3.92666,-1.963331 c -7.51187,-3.784391 -11.26781,-8.521994 -11.26781,-14.212807 0,-3.670575 1.40848,-6.800522 4.22543,-9.389842 2.84541,-2.617775 6.4733,-3.926662 10.88368,-3.926662 3.01613,0 5.84731,0.668671 8.49354,2.006012 2.67469,1.308887 4.93679,3.201083 6.7863,5.676587 z"
       id="text2"
       style="font-weight:bold;font-size:87.4109px;font-family:'Century Gothic';-inkscape-font-specification:'Century Gothic, Bold';fill:#ffffff;fill-opacity:1;stroke-width:0.264583"
       aria-label="timetensors"
       sodipodi:nodetypes="cccccccccccccscscscssscccccccccssccsscsccscsccsccscssccsccccccscccscscscccccscccccccccccccccccccscccscscscccccscccccccscsccsccsccscccccscscccsscscccsssccscsccscssccscscsscscssscscccssccsccccccccscscccsscscccsssccscscc" />
    <rect
       style="fill:#ffffff;stroke:#000000;stroke-width:0;stroke-dasharray:none"
       id="rect1"
       width="24.556734"
       height="21.577202"
       x="1.5550849"
       y="42.75779"
       transform="matrix(0.20865083,-0.9779902,0.80816242,0.58895967,0,0)" />
  </g>
</svg>
